<svg width="37" height="9" viewBox="0 0 37 9" xmlns="http://www.w3.org/2000/svg">
<path d="M0.916504 4C0.640362 4 0.416504 4.22386 0.416504 4.5C0.416504 4.77614 0.640362 5 0.916504 5V4ZM36.4179 4.85355C36.6131 4.65829 36.6131 4.34171 36.4179 4.14645L33.2359 0.964466C33.0406 0.769204 32.724 0.769204 32.5288 0.964466C32.3335 1.15973 32.3335 1.47631 32.5288 1.67157L35.3572 4.5L32.5288 7.32843C32.3335 7.52369 32.3335 7.84027 32.5288 8.03553C32.724 8.2308 33.0406 8.2308 33.2359 8.03553L36.4179 4.85355ZM0.916504 5H36.0643V4H0.916504V5Z" fill="currentColor"/>
</svg>
