<svg width="16" height="22" viewBox="0 0 16 22" xmlns="http://www.w3.org/2000/svg">
<path d="M8 0C3.5835 0 0 3.1679 0 7.07143C0 13.3571 8 22 8 22C8 22 16 13.3571 16 7.07143C16 3.1679 12.4165 0 8 0ZM8 11C7.3671 11 6.74841 10.8157 6.22218 10.4703C5.69594 10.125 5.28579 9.63414 5.04359 9.05986C4.80138 8.48558 4.73801 7.85366 4.86149 7.244C4.98496 6.63435 5.28973 6.07434 5.73726 5.63481C6.18479 5.19527 6.75497 4.89594 7.37571 4.77467C7.99645 4.65341 8.63986 4.71565 9.22459 4.95352C9.80931 5.1914 10.3091 5.59422 10.6607 6.11107C11.0123 6.62791 11.2 7.23554 11.2 7.85714C11.1991 8.6904 10.8616 9.48927 10.2617 10.0785C9.6618 10.6677 8.84841 10.9991 8 11Z" fill="currentColor" fill-opacity="0.6"/>
</svg>
