<svg width="0" height="0" class="hidden">
  <symbol xmlns="http://www.w3.org/2000/svg" viewBox="0 0 37 9" id="ic_arrow">
    <path d="M0.916504 4C0.640362 4 0.416504 4.22386 0.416504 4.5C0.416504 4.77614 0.640362 5 0.916504 5V4ZM36.4179 4.85355C36.6131 4.65829 36.6131 4.34171 36.4179 4.14645L33.2359 0.964466C33.0406 0.769204 32.724 0.769204 32.5288 0.964466C32.3335 1.15973 32.3335 1.47631 32.5288 1.67157L35.3572 4.5L32.5288 7.32843C32.3335 7.52369 32.3335 7.84027 32.5288 8.03553C32.724 8.2308 33.0406 8.2308 33.2359 8.03553L36.4179 4.85355ZM0.916504 5H36.0643V4H0.916504V5Z" fill="currentColor"></path>
  </symbol>
  <symbol xmlns="http://www.w3.org/2000/svg" viewBox="0 0 32 18" id="ic_arrow_down">
    <path fill-rule="evenodd" clip-rule="evenodd" d="M31.4934 0.494371C30.8179 -0.16479 29.7227 -0.16479 29.0472 0.494371L16 13.2259L2.95283 0.494371C2.27733 -0.16479 1.18213 -0.16479 0.506626 0.494371C-0.168876 1.15353 -0.168876 2.22224 0.506626 2.88141L16 18L31.4934 2.88141C32.1689 2.22224 32.1689 1.15353 31.4934 0.494371Z" fill="currentColor"></path>
  </symbol>
  <symbol xmlns="http://www.w3.org/2000/svg" viewBox="0 0 14 12" id="ic_check">
    <path d="M2 5.82864L6.11765 10.2858L12 1.71436" stroke="currentColor" stroke-width="2.14286" stroke-linecap="round" fill="none"></path>
  </symbol>
  <symbol xmlns="http://www.w3.org/2000/svg" viewBox="0 0 16 22" id="ic_location">
    <path d="M8 0C3.5835 0 0 3.1679 0 7.07143C0 13.3571 8 22 8 22C8 22 16 13.3571 16 7.07143C16 3.1679 12.4165 0 8 0ZM8 11C7.3671 11 6.74841 10.8157 6.22218 10.4703C5.69594 10.125 5.28579 9.63414 5.04359 9.05986C4.80138 8.48558 4.73801 7.85366 4.86149 7.244C4.98496 6.63435 5.28973 6.07434 5.73726 5.63481C6.18479 5.19527 6.75497 4.89594 7.37571 4.77467C7.99645 4.65341 8.63986 4.71565 9.22459 4.95352C9.80931 5.1914 10.3091 5.59422 10.6607 6.11107C11.0123 6.62791 11.2 7.23554 11.2 7.85714C11.1991 8.6904 10.8616 9.48927 10.2617 10.0785C9.6618 10.6677 8.84841 10.9991 8 11Z" fill="currentColor" fill-opacity="0.6"></path>
  </symbol>
  <symbol xmlns="http://www.w3.org/2000/svg" viewBox="0 0 106 8" id="ic_mob_scroll_arrow">
    <path d="M105.354 4.35355C105.549 4.15829 105.549 3.84171 105.354 3.64645L102.172 0.464466C101.976 0.269204 101.66 0.269204 101.464 0.464466C101.269 0.659728 101.269 0.976311 101.464 1.17157L104.293 4L101.464 6.82843C101.269 7.02369 101.269 7.34027 101.464 7.53553C101.66 7.7308 101.976 7.7308 102.172 7.53553L105.354 4.35355ZM0 4.5L105 4.5V3.5L0 3.5L0 4.5Z" fill="currentColor"></path>
  </symbol>
  <symbol xmlns="http://www.w3.org/2000/svg" viewBox="0 0 20 20" id="ic_phone">
    <g opacity="0.8">
      <path d="M15.2735 18.7501C14.511 18.7501 13.4399 18.4743 11.836 17.5783C9.88562 16.4845 8.37702 15.4747 6.43718 13.54C4.56687 11.6708 3.65671 10.4607 2.38288 8.1427C0.94382 5.52552 1.18913 4.15364 1.46335 3.56731C1.78991 2.86653 2.27195 2.44739 2.89499 2.03138C3.24888 1.79951 3.62338 1.60076 4.01374 1.43763C4.0528 1.42083 4.08913 1.40481 4.12156 1.39036C4.31491 1.30325 4.60788 1.17161 4.97898 1.31224C5.22663 1.4052 5.44773 1.59544 5.79382 1.93724C6.50359 2.63724 7.47351 4.19622 7.83132 4.96184C8.07156 5.47786 8.23054 5.81849 8.23093 6.20052C8.23093 6.64778 8.00593 6.9927 7.73288 7.36497C7.68171 7.43489 7.63093 7.50169 7.58171 7.56653C7.28445 7.95716 7.21921 8.07005 7.26218 8.27161C7.34929 8.67669 7.9989 9.88255 9.06648 10.9478C10.1341 12.013 11.3051 12.6216 11.7118 12.7083C11.9219 12.7533 12.0372 12.6853 12.4403 12.3775C12.4981 12.3333 12.5575 12.2876 12.6196 12.2419C13.036 11.9322 13.3649 11.713 13.8016 11.713H13.804C14.1841 11.713 14.5094 11.8779 15.0485 12.1497C15.7516 12.5044 17.3575 13.4618 18.0618 14.1724C18.4044 14.5177 18.5954 14.738 18.6887 14.9853C18.8294 15.3575 18.6969 15.6493 18.6106 15.8447C18.5962 15.8771 18.5802 15.9126 18.5634 15.9521C18.3989 16.3417 18.199 16.7155 17.9661 17.0685C17.5509 17.6896 17.1301 18.1704 16.4278 18.4974C16.0672 18.668 15.6725 18.7544 15.2735 18.7501Z" fill="currentColor" fill-opacity="0.8"></path>
    </g>
  </symbol>
  <symbol xmlns="http://www.w3.org/2000/svg" viewBox="0 0 16 29" id="ic_slider_arrow">
    <path fill-rule="evenodd" clip-rule="evenodd" d="M15.5606 0.45913C16.1465 1.0713 16.1465 2.06383 15.5606 2.67601L4.24362 14.5L15.5606 26.324C16.1465 26.9362 16.1465 27.9287 15.5606 28.5409C14.9746 29.153 14.0247 29.153 13.4388 28.5409L0 14.5L13.4388 0.45913C14.0247 -0.153043 14.9746 -0.153043 15.5606 0.45913Z" fill="currentColor"></path>
  </symbol>
</svg>